# xmcd
#
# Track frame offsets: 
#        150
#        18297
#        35168
#        48099
#        66097
#        84219
#        105656
#        121305
#        135360
#        149664
#        162472
#
# Disc length: 2488 seconds
#
# Revision: 0
# Processed by: cddbd v1.5.2PL0 Copyright (c) Steve Scherf et al.
# Submitted via: ExactAudioCopy v0.99pb5
#
DISCID=8f09b60b
DTITLE=เฮฮาปาร์ตี้ vol2 - เฮฮาปาร์ตี้ vol2
DYEAR=2010
DGENRE=Country
TTITLE0=ไข่มดแดง
TTITLE1=พกเมียมาด้วยเหรอ
TTITLE2=เซ็นเบิ๊ดปี
TTITLE3=สาวกาฬสินธุ์
TTITLE4=เมียห่าว
TTITLE5=แอบฝัน-รักเดียวใจเดียว
TTITLE6=หนุ่มยาว สาวสั้น
TTITLE7=รักจางที่บางประกง
TTITLE8=น้ำในคลอง
TTITLE9=ห้องนอนคนจน
TTITLE10=เฮฮาปาร์ตี้(แฮปปี้ทูเดย์)
EXTD=
EXTT0=
EXTT1=
EXTT2=
EXTT3=
EXTT4=
EXTT5=
EXTT6=
EXTT7=
EXTT8=
EXTT9=
EXTT10=
PLAYORDER=
